<?xml version="1.0" standalone="no"?>
<!DOCTYPE svg PUBLIC "-//W3C//DTD SVG 20010904//EN"
 "http://www.w3.org/TR/2001/REC-SVG-20010904/DTD/svg10.dtd">
<svg version="1.0" xmlns="http://www.w3.org/2000/svg"
 width="1081.000000pt" height="1081.000000pt" viewBox="0 0 1081.000000 1081.000000"
 preserveAspectRatio="xMidYMid meet">
<metadata>
Created by potrace 1.11, written by Peter Selinger 2001-2013
</metadata>
<g transform="translate(0.000000,1081.000000) scale(0.100000,-0.100000)"
fill="#000000" stroke="none">
<path d="M5070 10800 c-585 -27 -1238 -182 -1815 -432 -1164 -504 -2117 -1405
-2686 -2539 -289 -578 -472 -1206 -546 -1879 -26 -236 -26 -844 0 -1080 140
-1269 675 -2395 1558 -3279 852 -853 1958 -1393 3154 -1541 204 -25 535 -50
665 -50 130 0 461 25 665 50 1058 131 2054 573 2865 1272 171 148 466 446 601
608 676 808 1099 1776 1228 2810 35 274 44 464 38 773 -6 296 -19 460 -57 712
-183 1195 -761 2296 -1643 3123 -619 581 -1360 1005 -2183 1247 -290 86 -663
159 -964 189 -180 18 -647 27 -880 16z m676 -101 c107 -19 191 -49 241 -84 26
-20 60 -43 74 -52 39 -25 97 -109 115 -167 9 -28 18 -91 21 -141 4 -74 0 -108
-21 -189 -56 -217 -118 -297 -299 -386 -141 -69 -280 -104 -372 -95 -85 9
-102 9 -137 0 -34 -9 -114 16 -171 52 -22 14 -67 32 -99 39 -85 20 -129 46
-186 110 -67 74 -88 136 -108 317 -18 156 -14 206 24 300 29 74 176 172 376
251 117 47 402 70 542 45z m-2240 -569 c120 -41 215 -175 269 -380 57 -216 54
-246 -36 -403 -90 -158 -185 -251 -284 -283 -62 -19 -91 -14 -133 21 -17 14
-33 25 -37 25 -3 0 -3 -24 0 -53 6 -43 4 -57 -10 -70 -33 -34 -55 -40 -100
-27 -37 10 -53 9 -121 -10 -337 -94 -497 -61 -589 120 -39 78 -55 162 -55 300
0 105 4 137 24 200 58 181 73 211 128 267 106 109 252 201 439 278 l84 35 181
0 c155 0 188 -3 240 -20z m4384 -54 c86 -26 128 -47 230 -111 68 -44 147 -98
175 -122 27 -23 71 -54 97 -68 34 -18 55 -39 80 -81 18 -31 49 -74 67 -96 33
-38 35 -44 39 -128 7 -147 -41 -261 -158 -376 -79 -78 -164 -128 -279 -165
-143 -46 -228 -55 -330 -35 -188 35 -403 176 -501 327 -62 96 -83 194 -84 384
-1 153 0 162 26 217 53 113 181 256 253 282 68 24 256 11 385 -28z m-6180
-1407 c110 -25 194 -90 240 -184 34 -70 70 -233 73 -325 2 -76 -2 -98 -37
-200 -60 -178 -92 -202 -306 -221 -129 -11 -213 -6 -307 18 -31 7 -29 -9 6
-60 16 -23 64 -116 106 -206 105 -221 111 -283 27 -318 -20 -8 -54 -31 -75
-49 -20 -19 -41 -34 -46 -34 -5 0 -42 -20 -82 -45 -129 -79 -274 -127 -386
-127 -51 0 -74 6 -125 34 -81 42 -153 113 -167 164 -8 26 -9 110 -5 254 7 210
8 218 46 355 69 251 135 390 259 552 54 69 206 215 260 248 24 15 55 38 69 51
31 28 149 83 204 94 59 11 194 11 246 -1z m7850 -204 c14 -8 43 -14 66 -15 90
0 184 -76 268 -215 20 -33 61 -100 92 -150 31 -49 67 -112 81 -139 14 -28 43
-73 64 -101 65 -87 82 -135 91 -275 15 -211 19 -189 -46 -273 -65 -85 -125
-143 -163 -158 -80 -30 -264 -63 -354 -64 -106 0 -131 8 -284 94 -105 59 -176
112 -221 168 -34 42 -36 48 -31 96 4 28 10 54 14 58 9 9 511 307 583 347 54
29 76 49 67 59 -9 9 -102 -36 -182 -87 -33 -21 -167 -91 -297 -156 -211 -104
-241 -117 -265 -108 -54 19 -90 158 -73 281 5 41 10 100 10 132 0 123 70 282
161 367 39 36 192 121 252 140 56 17 136 17 167 -1z m-4061 -140 c84 -20 125
-46 150 -97 27 -56 16 -78 -42 -78 -71 -1 -109 -47 -82 -100 20 -39 38 -46 86
-33 21 6 40 8 43 6 9 -10 -15 -68 -39 -93 -14 -14 -47 -34 -74 -44 -28 -10
-62 -28 -76 -42 -32 -30 -47 -30 -60 -2 -6 13 -19 24 -30 26 -52 8 -68 15
-106 49 -41 37 -79 99 -79 128 0 13 6 12 31 -9 38 -32 63 -33 94 -1 57 56 4
175 -77 175 -32 0 -34 7 -13 38 30 41 122 83 200 91 6 0 39 -6 74 -14z m-1298
-276 c14 -7 18 -16 14 -27 -12 -32 -28 -127 -29 -177 -1 -47 1 -50 30 -58 37
-11 109 21 119 53 9 27 22 25 29 -5 9 -35 -10 -110 -50 -192 -25 -52 -34 -85
-34 -122 0 -46 -3 -52 -30 -66 -37 -19 -55 -19 -86 2 -19 12 -45 16 -95 15
-83 -3 -127 16 -182 77 -53 58 -50 73 12 65 45 -6 50 -4 66 20 16 24 16 28 0
52 -23 35 -80 57 -126 50 -45 -7 -54 8 -38 68 14 52 102 141 214 215 73 48 84
52 123 47 24 -3 52 -11 63 -17z m2638 -118 c70 -36 141 -133 141 -193 0 -21
-4 -23 -49 -20 -82 6 -132 -33 -117 -92 4 -17 21 -29 58 -43 29 -11 53 -26 53
-34 0 -20 -87 -70 -131 -76 -50 -6 -143 28 -190 70 -72 62 -102 175 -69 252
l18 40 8 -40 c17 -77 86 -100 133 -44 39 46 30 105 -23 153 -29 26 -27 32 17
44 47 14 103 7 151 -17z m-3769 -763 c0 -2 -9 -27 -20 -56 -33 -87 -22 -156
26 -168 33 -8 64 22 88 86 28 78 32 80 69 38 48 -55 197 -374 197 -424 0 -59
-19 -79 -89 -93 -33 -7 -87 -21 -118 -32 -57 -21 -227 -35 -265 -23 -22 7 -23
27 -3 44 23 19 19 66 -7 84 -29 21 -46 20 -91 -4 -21 -11 -42 -18 -47 -15 -6
3 -17 31 -26 61 -14 50 -14 63 1 157 27 165 90 272 192 326 31 16 93 29 93 19z
m2293 -163 c-7 -21 -13 -19 -13 6 0 11 4 18 10 14 5 -3 7 -12 3 -20z m7 -66
c0 -29 -13 -39 -25 -18 -10 15 4 61 15 54 6 -3 10 -19 10 -36z m2400 -99 c26
-18 69 -104 58 -115 -8 -8 -79 16 -83 28 -7 25 -14 107 -9 107 3 0 19 -9 34
-20z m-2650 -24 c0 -35 -12 -52 -29 -42 -11 7 8 76 21 76 4 0 8 -15 8 -34z
m2475 -5 c-23 -34 -26 -47 -23 -112 3 -71 4 -74 37 -96 21 -14 49 -23 72 -23
43 0 52 -14 17 -24 -49 -13 -115 -6 -140 14 -36 27 -61 95 -53 139 10 54 42
109 73 125 42 23 44 19 17 -23z m-3018 -41 c5 -37 4 -42 -13 -38 -24 4 -39 47
-30 83 6 25 9 27 22 13 9 -8 18 -34 21 -58z m1608 60 c8 -13 -36 -100 -57
-114 -23 -14 -42 5 -33 34 8 24 63 90 75 90 5 0 12 -4 15 -10z m-465 -20 c0
-11 -4 -20 -10 -20 -5 0 -10 9 -10 20 0 11 5 20 10 20 6 0 10 -9 10 -20z
m-755 -21 c4 -6 4 -13 1 -16 -7 -7 -46 26 -46 39 0 10 36 -8 45 -23z m899 -21
c-4 -7 -16 -23 -27 -35 -11 -12 -17 -28 -14 -35 2 -7 37 -23 77 -36 141 -44
305 -132 390 -208 34 -31 43 -35 51 -23 5 8 9 20 9 27 0 6 7 12 15 12 21 0 19
-16 -6 -41 -20 -20 -20 -22 -3 -40 9 -10 25 -21 35 -24 15 -5 18 -12 13 -31
-5 -21 1 -34 34 -67 92 -96 215 -298 242 -397 7 -24 19 -49 27 -55 12 -9 13
-16 6 -30 -8 -14 -4 -31 18 -72 38 -71 39 -130 5 -143 -13 -5 -27 -17 -29 -27
-15 -53 -18 -107 -12 -201 6 -82 12 -109 26 -123 11 -11 25 -16 35 -12 15 5
16 1 11 -31 -3 -20 -16 -57 -28 -82 -18 -36 -20 -47 -10 -53 10 -7 9 -20 -4
-70 -10 -34 -22 -64 -26 -67 -5 -3 -21 4 -36 14 -91 62 -111 72 -145 72 -30 0
-37 -4 -40 -22 -2 -19 -9 -23 -39 -23 -51 0 -71 -22 -114 -126 -33 -77 -37
-96 -32 -140 8 -63 28 -97 65 -105 32 -8 102 -46 102 -56 0 -3 -18 -21 -40
-38 -22 -17 -40 -38 -40 -45 0 -7 -14 -24 -30 -37 -17 -13 -46 -36 -66 -52
-19 -16 -36 -27 -38 -25 -1 2 -9 25 -16 52 -7 26 -25 66 -40 90 -15 23 -30 54
-33 67 -13 52 -72 134 -112 157 -94 53 -210 9 -272 -102 -28 -52 -33 -69 -33
-131 0 -87 20 -147 64 -194 41 -44 79 -107 72 -119 -3 -5 -27 -12 -52 -16 -33
-5 -48 -12 -51 -25 -7 -27 -18 -29 -202 -45 -192 -17 -371 -7 -455 27 -30 11
-53 15 -58 10 -23 -23 -155 28 -312 120 -127 75 -166 107 -222 180 -28 35 -52
57 -60 54 -38 -14 -198 186 -249 313 -31 76 -85 243 -85 263 0 9 -9 22 -20 29
-35 24 -72 150 -78 268 -6 124 8 210 54 339 18 52 30 100 27 107 -9 25 29 174
61 238 69 136 244 366 280 367 6 1 55 40 109 89 54 48 121 99 150 114 133 65
238 108 297 122 36 8 115 26 175 41 196 46 364 42 517 -11 l67 -23 43 39 c43
39 66 51 52 27z m-1415 -286 c8 -23 12 -44 8 -48 -11 -12 -46 40 -47 69 0 41
20 29 39 -21z m-161 -91 c22 -14 10 -46 -17 -46 -31 0 -52 31 -31 45 19 12 31
12 48 1z m-3664 -90 c44 -22 111 -53 149 -70 76 -34 276 -172 336 -232 43 -44
71 -95 71 -132 0 -13 -11 -41 -25 -62 -34 -49 -141 -174 -174 -203 -41 -35
-265 -140 -385 -181 -61 -21 -111 -42 -113 -48 -2 -6 40 -28 94 -48 186 -71
214 -83 271 -116 57 -34 204 -172 255 -240 20 -27 30 -57 39 -116 l12 -79 -47
-86 c-85 -156 -165 -222 -345 -284 -115 -40 -177 -43 -277 -13 -62 18 -80 30
-151 97 -114 108 -146 177 -180 391 -11 71 -15 147 -12 240 3 126 6 140 32
190 l28 54 -16 81 c-21 104 -22 427 -2 501 25 96 123 261 192 326 86 81 131
86 248 30z m3354 -99 c3 -19 -1 -23 -15 -20 -10 2 -19 14 -21 26 -3 19 1 23
15 20 10 -2 19 -14 21 -26z m2722 19 c0 -11 -41 -38 -65 -43 -31 -5 -27 18 7
34 38 19 58 22 58 9z m3667 -112 l78 -11 83 -87 c46 -47 92 -104 102 -126 10
-22 28 -87 39 -144 18 -91 21 -140 21 -406 0 -334 -2 -348 -70 -469 -37 -65
-71 -101 -155 -167 -96 -74 -234 -97 -353 -60 -164 51 -336 190 -407 331 -39
78 -96 260 -93 299 3 32 7 36 46 48 26 7 135 14 265 18 194 4 264 10 415 31
41 6 34 20 -15 28 -21 4 -49 11 -63 16 -29 11 -210 40 -285 45 -149 10 -364
51 -366 69 -6 82 4 125 48 211 91 177 238 303 398 340 38 9 80 23 94 30 32 17
114 19 218 4z m-6417 -184 c0 -8 5 -15 12 -15 19 0 68 -52 68 -73 0 -14 -6
-18 -27 -15 -22 2 -34 14 -55 53 -31 59 -33 65 -13 65 8 0 15 -7 15 -15z
m-1063 -212 c70 -22 116 -61 153 -132 31 -58 99 -121 130 -121 18 0 40 -19 40
-35 0 -6 -28 -25 -62 -41 -35 -16 -84 -48 -109 -72 -26 -23 -82 -63 -125 -87
-63 -36 -88 -45 -127 -45 -41 0 -52 4 -78 33 -50 53 -101 173 -102 237 -2 148
89 265 217 279 5 1 33 -7 63 -16z m1033 -69 c0 -9 -5 -14 -12 -12 -18 6 -21
28 -4 28 9 0 16 -7 16 -16z m2870 -144 c0 -5 -9 -10 -20 -10 -11 0 -20 5 -20
10 0 6 9 10 20 10 11 0 20 -4 20 -10z m1115 -17 c-61 -33 -71 -77 -29 -120 21
-21 32 -25 65 -20 42 6 54 -9 15 -19 -31 -8 -65 3 -93 29 -51 46 -11 147 57
146 8 0 2 -7 -15 -16z m-945 -33 c0 -5 -9 -14 -19 -19 -14 -8 -20 -7 -24 3 -3
8 -3 17 0 20 10 10 43 7 43 -4z m384 -6 c10 -26 7 -52 -6 -57 -7 -2 -30 4 -51
15 -31 15 -36 22 -27 33 10 12 30 19 66 24 7 0 15 -6 18 -15z m702 -50 c-3 -9
-6 -18 -6 -20 0 -3 -4 -3 -10 1 -11 7 -2 35 12 35 6 0 7 -7 4 -16z m-1110 -30
c-4 -12 -10 -14 -17 -7 -5 5 -7 17 -3 27 4 12 10 14 17 7 5 -5 7 -17 3 -27z
m-3211 16 c3 -6 -1 -13 -10 -16 -19 -8 -30 0 -20 15 8 14 22 14 30 1z m205
-270 c40 -20 54 -50 25 -50 -33 0 -108 47 -99 61 8 14 32 11 74 -11z m36 -337
c-10 -10 -19 5 -10 18 6 11 8 11 12 0 2 -7 1 -15 -2 -18z m2914 -98 c28 -26
25 -33 -17 -41 -28 -5 -39 -3 -48 10 -7 9 -22 16 -34 16 -19 0 -22 -5 -19 -32
2 -26 11 -36 41 -52 42 -22 50 -41 12 -32 -22 6 -25 3 -25 -19 0 -28 -21 -33
-40 -10 -7 8 -20 15 -30 15 -40 0 -42 25 -5 86 19 32 35 64 35 72 0 21 103 11
130 -13z m-2934 -126 c10 -17 -13 -36 -27 -22 -12 12 -4 33 11 33 5 0 12 -5
16 -11z m3242 -69 c18 -11 35 -26 38 -34 11 -29 -46 -106 -77 -106 -50 0 -126
119 -96 149 18 18 99 13 135 -9z m-3583 -90 c14 -5 25 -12 25 -15 0 -3 -18
-29 -39 -58 -21 -29 -53 -80 -69 -113 -39 -78 -81 -120 -157 -155 -86 -41
-161 -41 -209 1 -43 39 -60 86 -51 149 8 58 29 91 89 141 42 35 70 48 131 64
31 7 253 -4 280 -14z m635 -4 c0 -23 -82 -37 -95 -16 -12 19 6 30 51 30 31 0
44 -4 44 -14z m1865 -218 c19 -9 28 -9 37 0 16 16 45 15 55 -1 4 -7 22 -19 40
-26 17 -7 34 -19 36 -26 3 -7 21 -15 40 -19 46 -9 61 -27 43 -51 -21 -30 -67
-23 -121 18 -26 21 -54 37 -61 37 -17 0 -27 -17 -14 -25 5 -3 10 -15 10 -25 0
-10 9 -22 20 -25 22 -7 29 -55 8 -55 -6 0 -20 -8 -30 -17 -26 -24 -38 -7 -43
63 -4 52 -9 63 -40 92 -38 37 -41 42 -23 60 15 15 11 15 43 0z m231 -36 c-23
-23 -33 -6 -10 19 12 13 20 16 22 9 3 -7 -3 -19 -12 -28z m-1838 -35 c2 -12
-3 -17 -17 -17 -12 0 -21 6 -21 13 0 31 32 34 38 4z m460 -115 c2 -7 -3 -12
-12 -12 -9 0 -16 7 -16 16 0 17 22 14 28 -4z m-378 -6 c0 -25 -12 -46 -26 -46
-14 0 -20 41 -7 53 12 12 33 7 33 -7z m288 -78 c8 -41 -80 -77 -108 -43 -17
21 -9 36 30 50 45 17 74 14 78 -7z m802 8 c0 -16 -37 -32 -48 -21 -7 7 25 35
40 35 4 0 8 -6 8 -14z m-190 -16 c0 -18 -2 -19 -20 -8 -11 7 -20 16 -20 20 0
5 9 8 20 8 13 0 20 -7 20 -20z m-132 -21 c-2 -6 -8 -10 -13 -10 -5 0 -11 4
-13 10 -2 6 4 11 13 11 9 0 15 -5 13 -11z m-4215 -56 c18 -17 40 -33 50 -36
21 -8 23 -53 2 -73 -8 -9 -15 -25 -15 -36 0 -11 -11 -66 -24 -122 -14 -55 -28
-117 -31 -136 -9 -47 -102 -323 -127 -380 -12 -25 -27 -67 -34 -93 -11 -44
-11 -54 9 -104 22 -60 104 -158 140 -169 12 -4 33 -14 47 -24 27 -19 302 -112
580 -197 47 -14 92 -32 101 -39 8 -8 20 -14 26 -14 6 0 41 -13 77 -30 59 -26
66 -32 66 -57 0 -51 -47 -126 -137 -219 l-88 -91 -80 -18 c-75 -17 -84 -17
-142 -1 -34 9 -72 16 -85 16 -33 0 -125 45 -175 86 -58 48 -96 106 -148 224
-45 104 -92 187 -131 230 -37 40 -94 159 -94 194 0 64 -97 208 -273 405 -32
35 -70 88 -85 115 -24 46 -27 62 -27 156 0 107 28 266 61 350 23 57 94 80 274
91 195 11 225 8 263 -28z m4167 8 c0 -5 -6 -14 -14 -20 -16 -13 -32 2 -21 19
8 12 35 13 35 1z m101 -38 c5 -14 8 -34 7 -42 -5 -26 -31 -18 -41 12 -17 52
14 81 34 30z m169 1 c60 -19 78 -37 60 -59 -14 -17 -72 -20 -100 -5 -25 14
-41 44 -34 64 8 20 14 20 74 0z m877 -39 c63 -31 77 -48 99 -118 16 -52 17
-62 4 -99 -19 -52 -58 -83 -95 -74 -14 4 -43 22 -63 41 -35 31 -37 37 -37 92
1 74 24 183 40 183 2 0 25 -11 52 -25z m-1977 -27 c0 -13 -7 -48 -15 -78 -9
-30 -19 -97 -24 -149 -16 -154 -73 -243 -166 -256 -121 -19 -194 112 -135 243
37 81 161 202 207 202 7 0 32 14 55 30 50 36 78 39 78 8z m5288 1 c26 -7 103
-36 172 -65 184 -79 223 -123 236 -265 8 -93 -14 -219 -60 -338 -19 -48 -44
-117 -56 -156 -46 -142 -106 -232 -242 -360 -206 -195 -292 -250 -378 -242
-25 2 -85 21 -135 41 -49 21 -119 50 -155 64 -77 32 -128 80 -162 153 -40 86
-47 135 -49 320 -2 182 7 246 43 305 31 53 56 51 145 -8 43 -29 119 -71 168
-93 50 -22 128 -61 175 -87 188 -105 353 -181 369 -171 35 22 20 41 -111 138
-73 54 -153 117 -178 140 -25 23 -103 86 -175 140 -71 54 -148 114 -170 133
-66 58 -83 114 -40 134 13 6 27 19 30 29 8 24 157 136 214 162 79 35 267 48
359 26z m-4314 -271 c2 -7 8 -31 14 -53 6 -22 20 -71 31 -110 25 -83 26 -97 6
-135 -22 -42 -53 -60 -106 -60 -40 0 -51 4 -73 31 -30 36 -32 59 -10 142 25
99 82 197 114 197 12 0 22 -6 24 -12z m2680 -1494 c116 -30 211 -89 322 -199
100 -99 174 -198 174 -233 0 -10 -14 -67 -30 -127 l-31 -109 -97 -104 c-53
-57 -118 -130 -144 -162 -74 -92 -369 -281 -488 -313 -30 -9 -82 -26 -115 -38
-52 -20 -83 -23 -240 -27 -112 -3 -211 0 -262 8 -99 14 -119 32 -154 137 -19
57 -23 88 -22 199 l0 131 63 174 c35 96 73 190 86 210 27 43 101 109 122 109
9 0 142 -128 297 -285 154 -157 287 -285 294 -285 18 0 8 99 -24 235 -12 55
-30 154 -40 220 -9 66 -24 161 -33 210 -8 50 -15 117 -16 150 l-1 60 45 13
c25 7 63 19 85 27 54 18 134 18 209 -1z m-5547 -110 c27 -20 37 -23 48 -14 30
25 58 7 89 -55 27 -54 30 -70 32 -170 1 -60 9 -144 18 -185 49 -217 56 -260
54 -326 -1 -47 2 -77 11 -88 35 -42 195 -106 266 -106 18 0 79 14 135 30 56
17 153 41 214 54 61 13 165 37 231 53 224 56 295 63 295 29 0 -7 14 -25 30
-41 28 -27 30 -33 30 -106 0 -166 -31 -223 -149 -278 -92 -42 -199 -50 -355
-27 -128 19 -167 35 -261 105 -90 68 -155 101 -199 101 -106 0 -250 63 -316
137 -21 25 -55 53 -75 63 -20 10 -60 37 -88 59 -29 22 -84 54 -122 71 -307
138 -333 162 -351 318 -7 66 4 117 47 206 25 51 39 68 92 103 80 53 98 62 171
84 72 22 108 18 153 -17z m2384 -811 c6 -16 36 -62 68 -103 32 -41 69 -93 83
-115 91 -145 120 -189 178 -267 36 -48 77 -105 92 -128 26 -38 31 -40 77 -40
42 0 56 6 98 39 58 46 135 127 190 198 22 28 87 102 146 165 58 62 127 142
154 178 75 101 112 97 209 -23 75 -92 94 -130 125 -244 28 -106 22 -149 -37
-239 -70 -106 -108 -140 -196 -174 -42 -17 -88 -30 -101 -30 -13 0 -50 -10
-83 -22 -53 -20 -80 -23 -284 -25 -169 -2 -239 -7 -280 -19 -84 -24 -301 -30
-402 -11 -46 9 -112 21 -148 27 -142 24 -194 55 -254 155 -57 93 -45 258 29
390 43 77 280 312 318 314 4 1 12 -11 18 -26z"/>
<path d="M5431 5464 c0 -11 3 -14 6 -6 3 7 2 16 -1 19 -3 4 -6 -2 -5 -13z"/>
<path d="M5240 5356 c-133 -37 -155 -46 -158 -64 -4 -26 18 -70 52 -101 14
-14 26 -29 26 -35 0 -6 -66 -76 -146 -156 -80 -80 -151 -156 -159 -170 -7 -14
-18 -61 -24 -103 -9 -62 -8 -84 3 -110 19 -44 54 -74 107 -91 24 -8 64 -22 89
-31 25 -9 64 -15 88 -13 l43 3 -6 -36 c-4 -21 -2 -45 3 -55 5 -11 17 -44 26
-75 19 -67 74 -135 130 -160 60 -27 153 -25 197 4 42 28 110 144 144 247 l25
75 -69 255 c-38 140 -74 274 -80 296 -9 35 -17 44 -51 58 -22 9 -61 16 -85 16
-25 0 -45 2 -45 5 0 7 37 145 56 209 17 61 18 76 2 75 -7 0 -83 -20 -168 -43z
m220 -1066 c0 -5 -4 -10 -10 -10 -5 0 -10 5 -10 10 0 6 5 10 10 10 6 0 10 -4
10 -10z"/>
<path d="M5478 5383 c7 -3 16 -2 19 1 4 3 -2 6 -13 5 -11 0 -14 -3 -6 -6z"/>
</g>
</svg>
